<svg width="559" height="154" viewBox="0 0 559 154" fill="none" xmlns="http://www.w3.org/2000/svg">
<path fill-rule="evenodd" clip-rule="evenodd" d="M1.1001 77C1.1001 35.0264 35.1265 1 77.1001 1C119.074 1 153.1 35.0264 153.1 77C153.1 118.974 119.074 153 77.1001 153C35.1265 153 1.1001 118.974 1.1001 77ZM77.1001 4.71958C37.1807 4.71958 4.81967 37.0806 4.81967 77C4.81967 93.1242 10.099 108.015 19.0241 120.038C12.9618 109.902 9.47736 98.0464 9.47736 85.3773C9.47736 48.0303 39.7531 17.7545 77.1001 17.7545C114.447 17.7545 144.723 48.0303 144.723 85.3773C144.723 98.0464 141.238 109.902 135.176 120.038C144.101 108.015 149.381 93.1242 149.381 77C149.381 37.0806 117.019 4.71958 77.1001 4.71958ZM77.1001 21.4741C41.8074 21.4741 13.1969 50.0845 13.1969 85.3773C13.1969 99.7832 17.9634 113.075 26.0061 123.763C20.826 114.962 17.8546 104.705 17.8546 93.7545C17.8546 61.0342 44.3797 34.5091 77.1001 34.5091C109.82 34.5091 136.346 61.0342 136.346 93.7545C136.346 104.705 133.374 114.962 128.194 123.763C136.237 113.075 141.003 99.7832 141.003 85.3773C141.003 50.0845 112.393 21.4741 77.1001 21.4741ZM77.1001 38.2286C46.434 38.2286 21.5742 63.0884 21.5742 93.7545C21.5742 106.444 25.8301 118.138 32.9933 127.489C28.6926 120.025 26.2322 111.365 26.2322 102.132C26.2322 74.0386 49.0065 51.2642 77.1001 51.2642C105.194 51.2642 127.968 74.0386 127.968 102.132C127.968 111.365 125.508 120.025 121.207 127.489C128.37 118.138 132.626 106.444 132.626 93.7545C132.626 63.0884 107.766 38.2286 77.1001 38.2286ZM77.1001 54.9838C51.0608 54.9838 29.9518 76.0928 29.9518 102.132C29.9518 128.171 51.0608 149.28 77.1001 149.28C103.139 149.28 124.248 128.171 124.248 102.132C124.248 76.0928 103.139 54.9838 77.1001 54.9838Z" fill="#080808" stroke="#080808" stroke-width="2"/>
<path d="M325.879 50.2914C303.997 50.2914 287.497 66.8057 287.497 89.0782C287.497 111.211 304.127 128 325.879 128C342.074 128 355.409 118.845 360.957 104.141L361.468 102.788H354.921L354.656 103.378C349.423 115.022 338.719 121.816 325.879 121.816C307.691 121.816 293.815 107.708 293.815 89.0782C293.815 70.4512 307.553 56.475 325.879 56.475C338.864 56.475 349.557 63.2774 354.517 74.6337L354.779 75.2334H361.187L360.69 73.8873C355.414 59.586 342.483 50.2914 325.879 50.2914Z" fill="#080808"/>
<path d="M411.188 50.2915C399.778 50.2915 389.583 56.2555 383.848 65.3346V26H377.53V126.516H383.848V83.1404C383.848 68.7035 396.095 56.3401 410.379 56.3401C417.971 56.3401 423.958 58.885 428.057 63.432C432.167 67.9922 434.48 74.6791 434.48 83.1404V126.516H440.798V82.4656C440.798 72.6981 438.011 64.6419 432.86 59.017C427.701 53.3818 420.264 50.2915 411.188 50.2915Z" fill="#080808"/>
<path fill-rule="evenodd" clip-rule="evenodd" d="M496.427 50.2915C474.289 50.2915 457.505 66.7915 457.505 89.0783C457.505 111.36 474.285 128 496.427 128C518.707 128 535.349 111.358 535.349 89.0783C535.349 66.9312 518.704 50.2915 496.427 50.2915ZM496.427 56.475C477.681 56.475 463.824 70.3323 463.824 89.0783C463.824 107.827 477.819 121.817 496.427 121.817C515.163 121.817 528.895 107.835 528.895 89.0783C528.895 70.4593 515.165 56.475 496.427 56.475Z" fill="#080808"/>
<path fill-rule="evenodd" clip-rule="evenodd" d="M239.537 50.2914C218.167 50.2914 202.1 67.1048 202.1 89.0782C202.1 111.184 218.164 128 239.537 128C254.938 128 267.011 119.918 274.043 105.163L274.725 103.733H267.941L267.662 104.277C262.023 115.293 252.102 121.682 239.537 121.682C222.492 121.682 209.448 109.01 208.335 91.4278H276.081L276.27 90.6703C276.435 90.0101 276.435 89.235 276.435 88.7263V88.6734C276.435 67.1229 261.195 50.2914 239.537 50.2914ZM239.537 56.475C222.895 56.475 210.13 68.4866 208.504 85.3792H270.042C268.556 67.9901 255.8 56.475 239.537 56.475Z" fill="#080808"/>
<path d="M552.453 123.097L552.457 123.106L552.46 123.115C552.489 123.202 552.518 123.29 552.547 123.379C552.588 123.256 552.623 123.158 552.651 123.09L555.942 114.354H558.9V127.5H556.417V119.657L553.444 127.5H551.6L548.556 119.58V127.5H546.09V116.699H542.159V127.5H539.521V116.699H535.349V114.354H549.098L552.453 123.097Z" fill="#080808"/>
</svg>
